<svg width="67" height="64" viewBox="0 0 67 64" fill="none" xmlns="http://www.w3.org/2000/svg">
<rect width="66.9389" height="64" rx="12" fill="url(#paint0_linear_10331_1592)"/>
<g clip-path="url(#clip0_10331_1592)">
<g clip-path="url(#clip1_10331_1592)">
<path d="M31.8221 30.4905C33.4587 30.4541 35.0922 30.4984 36.7287 30.5008L46.6502 30.5092L51.7839 30.5068C52.7319 30.5024 53.716 30.4258 54.6585 30.5193C55.2043 30.5735 55.6274 30.6792 56.036 31.0355C56.1898 31.1697 56.3423 31.3289 56.4318 31.5074C56.7591 32.1603 56.8691 33.0037 57.0323 33.7058C57.6099 36.1898 58.1733 38.6352 58.2639 41.1845C58.2931 42.0111 58.495 43.842 57.8247 44.465C57.6061 44.668 57.3087 44.794 57.01 44.8586C56.2687 45.0189 54.8645 44.9236 54.0576 44.9315C53.8238 45.3162 53.5678 45.6869 53.3121 46.0593C55.2046 46.1383 57.0999 45.9977 58.9969 46.1263C58.9827 46.6064 58.9902 47.0884 58.989 47.5687C56.4386 47.6745 53.8584 47.6097 51.304 47.6088L38.2748 47.5791L22.8571 47.5499C20.3475 47.5719 17.8378 47.5697 15.3283 47.5435C15.3258 47.2003 15.3568 46.8536 15.3779 46.511C15.0745 46.4958 14.7702 46.4889 14.4665 46.478C13.712 45.7386 12.9843 44.9314 12.3605 44.0933C9.91223 40.803 8.69965 37.0888 8.92238 33.0905C8.9627 32.368 9.00506 31.6395 9.1478 30.9268C9.17244 30.9412 9.19682 30.956 9.22103 30.971C9.84255 31.3579 10.421 31.8465 10.9561 32.3306C13.6861 34.801 15.0027 37.939 15.7372 41.3448C16.0184 42.9024 16.0476 44.4048 16.0016 45.9768L18.9815 45.9745C19.1602 45.0672 19.34 44.1709 19.6137 43.2828C20.5715 40.1465 22.4067 37.2985 24.9346 35.025C24.9112 36.0141 24.9027 37.0034 24.9092 37.9927C24.3895 38.6554 23.8726 39.311 23.421 40.016C22.276 41.8039 21.442 43.9474 21.1909 46.0127C24.1932 45.9638 27.1963 45.9641 30.1986 46.0138C29.9344 45.6542 29.6994 45.2695 29.5606 44.8524C29.2992 44.0807 29.3802 43.2448 29.7856 42.5282C30.194 41.8215 30.9225 41.26 31.7576 41.0356C32.5908 40.8117 33.5692 40.9091 34.3258 41.3047C35.2542 41.7901 35.7054 42.5656 35.982 43.4871C36.6736 43.4879 37.364 43.4469 38.0558 43.442C40.2626 43.4333 42.4694 43.4396 44.6761 43.4608C45.6434 43.4742 46.5957 43.4332 47.5621 43.5089C47.6608 43.0644 47.842 42.639 48.0979 42.2517C48.5434 41.5887 49.2355 41.0851 50.064 40.9057C50.9062 40.7233 51.8681 40.878 52.5966 41.3063C53.4292 41.7957 53.946 42.619 54.1527 43.4972C55.058 43.5219 55.9645 43.509 56.8702 43.5327C56.8095 42.8214 56.8679 42.0888 56.8421 41.3724C54.2552 39.9102 50.4343 38.5848 47.4284 38.1496C46.3599 37.9948 45.2808 38.0268 44.2031 38.0284L40.5484 38.0337L26.9795 38.0411C26.9756 37.9703 26.9721 37.8994 26.9691 37.8286C26.8798 35.7305 27.1794 33.3446 28.8045 31.7455C29.6122 30.9507 30.6467 30.5196 31.8221 30.4905ZM52.5022 37.022C53.5027 37.3365 54.8692 37.4294 55.939 37.6685L56.8273 37.8572L56.1001 34.6867C55.9052 33.8572 55.6739 33.024 55.5468 32.1835C54.4422 32.1222 53.2487 32.0985 52.1451 32.1626C51.8166 32.1794 51.4359 32.1598 51.1962 32.4061C50.8839 32.727 50.9331 34.2894 51.0084 34.7298C51.1062 35.3023 52.1198 36.4973 52.5022 37.022ZM49.2283 34.815C49.3806 34.805 49.5227 34.8105 49.6346 34.7024C49.9903 34.3583 49.8939 33.2747 49.8479 32.8275C49.8281 32.6356 49.7969 32.4231 49.6446 32.2809C49.0677 32.068 45.552 32.1196 44.7202 32.1613C44.5225 32.1751 44.3379 32.1683 44.1981 32.319C44.1026 32.422 44.0538 32.5758 44.0359 32.708C43.9981 32.9883 44.0164 34.1119 44.0535 34.3904C44.0678 34.499 44.1197 34.6569 44.2188 34.7246C44.5139 34.9265 48.5896 34.8317 49.2283 34.815ZM42.2505 34.8275C42.4213 34.8153 42.7273 34.8268 42.8418 34.6932C43.0804 34.4149 43.0565 33.034 42.9887 32.6623C42.9581 32.4941 42.9132 32.3647 42.7783 32.2461C42.2095 32.0566 38.8646 32.1328 38.066 32.1633C37.8801 32.1702 37.5288 32.1473 37.3944 32.2853C37.1372 32.5493 37.2035 34.0152 37.2863 34.3692C37.32 34.5138 37.3643 34.6127 37.464 34.7279C37.8989 34.9585 41.5694 34.8378 42.2505 34.8275ZM32.5069 42.7169C31.7531 42.821 31.2359 43.4729 31.3557 44.168C31.4754 44.8631 32.1862 45.3346 32.9378 45.2174C33.6793 45.1018 34.1816 44.456 34.0634 43.7701C33.9452 43.0843 33.2508 42.6143 32.5069 42.7169ZM50.7692 42.6868C50.0088 42.755 49.4521 43.3793 49.5254 44.0816C49.5987 44.7838 50.2743 45.2984 51.0348 45.2312C51.7962 45.1641 52.3542 44.5393 52.2808 43.8363C52.2074 43.1332 51.5304 42.6185 50.7692 42.6868ZM36.1119 34.7708C36.2438 34.2492 36.3588 32.7663 36.0798 32.3152C35.6901 32.0283 34.2563 32.1317 33.7169 32.1617C32.7037 32.2516 31.949 32.4817 31.2817 33.2274C31.0377 33.5 30.5542 34.1452 30.6307 34.5113C30.6535 34.6202 30.6963 34.6771 30.7995 34.7341C31.1687 34.9379 32.695 34.8299 33.2023 34.8393C34.1406 34.8539 35.1932 34.9424 36.1119 34.7708ZM45.0451 46.0399C46.1647 46.0417 47.2932 46.0692 48.4113 46.016C48.1596 45.6602 47.9296 45.3008 47.707 44.9292L38.7001 44.9034C37.7559 44.9074 36.8085 44.8972 35.8648 44.923C35.6221 45.3116 35.3674 45.6862 35.0949 46.0578L45.0451 46.0399Z" fill="white"/>
<path d="M40.5165 21.019C41.0078 20.9688 41.597 21.0737 42.1012 21.0891C43.2695 21.7301 44.9571 23.9322 45.5795 25.0948C44.8286 25.0968 44.0786 25.0417 43.3255 25.0503C41.8858 25.0666 40.4127 25.2257 38.9957 25.4591C32.9644 26.4525 27.0983 29.209 22.8351 33.3033C21.6682 34.4239 20.6681 35.6438 19.7062 36.9177C19.0101 37.9317 18.4095 38.9853 17.8419 40.0654C17.8524 39.4873 17.973 38.8996 18.09 38.3323C18.7709 35.027 20.4506 31.7256 22.6674 29.0637C25.9428 25.161 30.6445 22.4928 35.8945 21.5571C36.7401 21.4018 37.5931 21.2819 38.4506 21.1979C39.139 21.1328 39.8299 21.1022 40.5165 21.019Z" fill="#DDDDDD" style="mix-blend-mode:luminosity"/>
<path d="M27.3786 15.8C27.3944 15.7976 27.4099 15.7941 27.4258 15.7927C27.8456 15.7523 28.2964 15.768 28.7188 15.7684C31.7484 15.7839 34.7284 16.4804 37.4014 17.7977C37.9563 18.0661 38.565 18.3515 39.0505 18.7176C34.9874 18.8781 31.0288 19.9558 27.5213 21.8566C26.2215 22.5434 24.9542 23.396 23.8255 24.3043C22.3517 21.5608 21.2394 20.0981 18.2437 18.5348C21.1231 16.8812 24.0222 16.106 27.3786 15.8Z" fill="#DDDDDD" style="mix-blend-mode:luminosity"/>
<path d="M15.6773 20.2537C16.2041 20.2605 17.2564 20.8558 17.7099 21.1229C19.7561 22.3284 21.0489 24.1422 21.5644 26.3217C20.6491 27.3011 19.8061 28.3362 19.0412 29.4201L18.9417 29.5559L18.8612 29.5676C18.7123 29.4696 18.0819 28.0786 17.9193 27.8023C17.5969 27.264 17.2428 26.7426 16.8583 26.2403C15.8172 24.8769 14.5854 23.813 13.2557 22.6998C13.8387 21.7906 14.8348 20.9651 15.6773 20.2537Z" fill="white"/>
<path d="M11.6018 24.7676C13.0634 25.6983 14.4712 27.2986 15.35 28.7145C16.7264 30.9319 17.6124 33.338 16.861 35.8886L16.4251 34.9763C15.3362 32.826 13.5717 30.9763 11.5812 29.4941C11.0377 29.0894 10.4341 28.7525 9.89445 28.3463L9.82788 28.2957C10.2856 27.0557 10.8494 25.8808 11.6018 24.7676Z" fill="#DDDDDD" style="mix-blend-mode:luminosity"/>
<path d="M44.7653 27.527C45.4828 27.4956 46.1958 27.623 46.8918 27.7675C46.99 28.0695 47.0846 28.3724 47.1759 28.6763C45.5304 28.7119 43.8757 28.681 42.2294 28.6778C41.3689 28.671 40.5084 28.6714 39.6478 28.6788C41.3816 28.0822 42.8863 27.6064 44.7653 27.527Z" fill="white"/>
</g>
</g>
<defs>
<linearGradient id="paint0_linear_10331_1592" x1="-15.0524" y1="69.6075" x2="105.109" y2="-73.0274" gradientUnits="userSpaceOnUse">
<stop stop-color="#01C2FF"/>
<stop offset="0.306988" stop-color="#437CE9"/>
<stop offset="0.64854" stop-color="#C9A3FF"/>
</linearGradient>
<clipPath id="clip0_10331_1592">
<rect width="51.041" height="32.8" fill="white" transform="translate(8.36731 15.2)"/>
</clipPath>
<clipPath id="clip1_10331_1592">
<rect width="51.041" height="32.8" fill="white" transform="translate(8.36731 15.2)"/>
</clipPath>
</defs>
</svg>
