<svg width="122.87999999999998" height="92.96" xmlns="http://www.w3.org/2000/svg" xml:space="preserve" version="1.1">
 <g>
  <title>Layer 1</title>
  <g id="svg_1">
   <path id="svg_2" clip-rule="evenodd" fill-rule="evenodd" d="m100.09,6.87l2.5,3.3c0.66,0.87 0.49,2.12 -0.38,2.77l-2.66,2.02c0.48,1.29 0.79,2.65 0.92,4.06l3.03,0.41c1.08,0.15 1.84,1.15 1.69,2.23l-0.56,4.1c-0.15,1.08 -1.15,1.84 -2.23,1.69l-3.3,-0.45c-0.59,1.28 -1.34,2.46 -2.22,3.52l1.85,2.43c0.66,0.87 0.49,2.12 -0.38,2.78l-3.3,2.5c-0.87,0.66 -2.12,0.49 -2.78,-0.38l-2.02,-2.66c-1.29,0.48 -2.66,0.79 -4.06,0.92l-0.41,3.03c-0.15,1.08 -1.15,1.84 -2.23,1.69l-4.1,-0.56c-1.08,-0.15 -1.84,-1.15 -1.69,-2.23l0.45,-3.3c-1.28,-0.59 -2.46,-1.34 -3.52,-2.23l-2.43,1.85c-0.87,0.66 -2.12,0.49 -2.78,-0.38l-2.5,-3.3c-0.66,-0.87 -0.49,-2.12 0.38,-2.77l2.66,-2.02c-0.48,-1.29 -0.79,-2.65 -0.92,-4.06l-3.03,-0.41c-1.08,-0.15 -1.84,-1.15 -1.69,-2.23l0.56,-4.1c0.15,-1.08 1.15,-1.84 2.23,-1.69l3.3,0.45c0.59,-1.28 1.34,-2.46 2.23,-3.52l-1.86,-2.43c-0.66,-0.87 -0.49,-2.12 0.38,-2.78l3.3,-2.5c0.87,-0.66 2.12,-0.49 2.78,0.38l2.02,2.66c1.29,-0.48 2.66,-0.79 4.06,-0.92l0.41,-3.02c0.15,-1.08 1.15,-1.84 2.23,-1.69l4.1,0.56c1.08,0.15 1.84,1.15 1.69,2.23l-0.45,3.3c1.28,0.59 2.46,1.34 3.52,2.23l2.43,-1.85c0.88,-0.67 2.13,-0.5 2.78,0.37l0,0l0,0zm-44.38,6.88c-0.23,0.02 -0.46,0.04 -0.69,0.06c-5.63,0.54 -11.1,2.59 -15.62,6.1c-5.23,4.05 -9.2,10.11 -10.73,18.14l-0.48,2.51l-2.5,0.44c-2.45,0.43 -4.64,1.02 -6.56,1.77c-1.86,0.72 -3.52,1.61 -4.97,2.66c-1.16,0.84 -2.16,1.78 -3.01,2.8c-2.63,3.15 -3.85,7.1 -3.82,11.1c0.03,4.06 1.35,8.16 3.79,11.53c0.91,1.25 1.96,2.4 3.16,3.4l0.03,0.02l-2.68,7.13c-0.71,-0.47 -1.4,-0.98 -2.04,-1.52c-1.68,-1.4 -3.15,-2.99 -4.4,-4.72c-3.35,-4.6 -5.15,-10.22 -5.19,-15.82c-0.04,-5.66 1.72,-11.29 5.52,-15.85c1.23,-1.48 2.68,-2.84 4.34,-4.04c1.93,-1.4 4.14,-2.58 6.64,-3.55c1.72,-0.67 3.56,-1.23 5.5,-1.68c2.2,-8.74 6.89,-15.47 12.92,-20.14c5.64,-4.37 12.43,-6.92 19.42,-7.59c2.13,-0.21 4.29,-0.24 6.43,-0.09c-0.47,0.25 -0.91,0.53 -1.33,0.85l-0.03,0.02c-1.93,1.47 -3.32,3.7 -3.68,6.3l-0.02,0.17l0,0zm-11.86,73.63l-11.86,0l-1.7,5.58l-10.69,0l12.75,-33.87l11.46,0l12.7,33.87l-10.96,0l-1.7,-5.58l0,0zm-2.22,-7.34l-3.7,-12.17l-3.71,12.17l7.41,0l0,0zm18.15,-20.95l17.41,0c3.79,0 6.64,0.9 8.52,2.7c1.88,1.8 2.83,4.38 2.83,7.71c0,3.42 -1.04,6.1 -3.09,8.03c-2.06,1.93 -5.21,2.89 -9.43,2.89l-5.74,0l0,12.54l-10.5,0l0,-33.87l0,0zm10.5,14.47l2.58,0c2.03,0 3.46,-0.35 4.28,-1.06c0.82,-0.7 1.23,-1.6 1.23,-2.7c0,-1.06 -0.36,-1.96 -1.07,-2.7c-0.71,-0.74 -2.05,-1.11 -4.02,-1.11l-3,0l0,7.57l0,0zm22.49,-14.47l10.5,0l0,33.87l-10.5,0l0,-33.87l0,0zm19.24,-27.35c1.07,0.83 2.09,1.77 3.07,2.82c1.07,1.15 2.08,2.45 3.03,3.9c3.2,4.92 4.84,11.49 4.77,17.92c-0.07,6.31 -1.77,12.59 -5.25,17.21c-0.84,1.11 -1.77,2.15 -2.78,3.12l0,-14.56c0.43,-1.87 0.65,-3.84 0.67,-5.83c0.06,-5.07 -1.18,-10.16 -3.59,-13.86c-0.69,-1.07 -1.45,-2.03 -2.25,-2.89c-0.65,-0.7 -1.34,-1.34 -2.05,-1.9c0.07,-0.3 0.13,-0.6 0.17,-0.9c0.08,-0.62 0.11,-1.25 0.07,-1.88c0.82,-0.32 1.58,-0.75 2.26,-1.27l0.03,-0.02c0.7,-0.54 1.32,-1.16 1.85,-1.86l0,0zm-26.12,-19.37c4.45,0.61 7.57,4.71 6.96,9.17c-0.61,4.45 -4.71,7.57 -9.17,6.96c-4.45,-0.61 -7.57,-4.71 -6.96,-9.17s4.72,-7.57 9.17,-6.96l0,0l0,0z" class="st0" fill="#ffffff"/>
  </g>
 </g>

</svg>